<mxfile host="Electron" modified="2023-05-27T15:52:40.895Z" agent="Mozilla/5.0 (Windows NT 10.0; Win64; x64) AppleWebKit/537.36 (KHTML, like Gecko) draw.io/21.2.8 Chrome/112.0.5615.165 Electron/24.2.0 Safari/537.36" etag="CoMpIncQksq_FNzxtBFv" version="21.2.8" type="device">
  <diagram name="Pagina-1" id="8xO9jtXSu2_QKKcLWOHX">
    <mxGraphModel dx="-1133" dy="205" grid="1" gridSize="10" guides="1" tooltips="1" connect="1" arrows="1" fold="1" page="1" pageScale="1" pageWidth="827" pageHeight="1169" math="0" shadow="0">
      <root>
        <mxCell id="0" />
        <mxCell id="1" parent="0" />
        <mxCell id="7CZmVCmsiPo-rSapfz1X-1" style="edgeStyle=orthogonalEdgeStyle;rounded=0;orthogonalLoop=1;jettySize=auto;html=1;exitX=0.5;exitY=1;exitDx=0;exitDy=0;endArrow=none;endFill=0;dashed=1;exitPerimeter=0;" parent="1" edge="1">
          <mxGeometry relative="1" as="geometry">
            <mxPoint x="2080" y="1000" as="targetPoint" />
            <mxPoint x="2080" y="336" as="sourcePoint" />
          </mxGeometry>
        </mxCell>
        <mxCell id="7CZmVCmsiPo-rSapfz1X-2" value="UI" style="shape=folder;fontStyle=1;spacingTop=10;tabWidth=40;tabHeight=14;tabPosition=left;html=1;whiteSpace=wrap;fillColor=#fff2cc;strokeColor=#d6b656;" parent="1" vertex="1">
          <mxGeometry x="2040" y="290" width="70" height="50" as="geometry" />
        </mxCell>
        <mxCell id="7CZmVCmsiPo-rSapfz1X-3" value="taskManager:KitchenTaskManager" style="html=1;whiteSpace=wrap;fillColor=#fff2cc;strokeColor=#d6b656;" parent="1" vertex="1">
          <mxGeometry x="2210" y="300" width="200" height="30" as="geometry" />
        </mxCell>
        <mxCell id="7CZmVCmsiPo-rSapfz1X-4" value="ktListener: KitchenTaskEventReceiver" style="html=1;whiteSpace=wrap;fillColor=#fff2cc;strokeColor=#d6b656;" parent="1" vertex="1">
          <mxGeometry x="2690" y="300" width="160" height="30" as="geometry" />
        </mxCell>
        <mxCell id="7CZmVCmsiPo-rSapfz1X-5" style="edgeStyle=orthogonalEdgeStyle;rounded=0;orthogonalLoop=1;jettySize=auto;html=1;exitX=0.5;exitY=1;exitDx=0;exitDy=0;endArrow=none;endFill=0;dashed=1;exitPerimeter=0;" parent="1" edge="1">
          <mxGeometry relative="1" as="geometry">
            <mxPoint x="2310" y="1000" as="targetPoint" />
            <mxPoint x="2309.5" y="330" as="sourcePoint" />
          </mxGeometry>
        </mxCell>
        <mxCell id="7CZmVCmsiPo-rSapfz1X-6" style="edgeStyle=orthogonalEdgeStyle;rounded=0;orthogonalLoop=1;jettySize=auto;html=1;exitX=0.5;exitY=1;exitDx=0;exitDy=0;endArrow=none;endFill=0;dashed=1;exitPerimeter=0;" parent="1" edge="1">
          <mxGeometry relative="1" as="geometry">
            <mxPoint x="2770" y="950" as="targetPoint" />
            <mxPoint x="2769.5" y="330" as="sourcePoint" />
          </mxGeometry>
        </mxCell>
        <mxCell id="7CZmVCmsiPo-rSapfz1X-7" value="&lt;p style=&quot;margin-left: 18pt; font-size: 14px;&quot; class=&quot;MsoNormal&quot;&gt;&lt;b&gt;1.a&lt;/b&gt; &lt;b&gt;&lt;span style=&quot;&quot;&gt;apriFoglioRiepilogativo(&lt;u&gt;servizio&lt;/u&gt;: Servizio)&lt;/span&gt;&lt;/b&gt;&lt;/p&gt;" style="text;html=1;align=center;verticalAlign=middle;resizable=0;points=[];autosize=1;strokeColor=none;fillColor=none;" parent="1" vertex="1">
          <mxGeometry x="2155" y="133" width="350" height="60" as="geometry" />
        </mxCell>
        <mxCell id="7CZmVCmsiPo-rSapfz1X-8" value="openSummarySheet(event,service)" style="html=1;verticalAlign=bottom;endArrow=block;edgeStyle=elbowEdgeStyle;elbow=vertical;curved=0;rounded=0;" parent="1" edge="1">
          <mxGeometry width="80" relative="1" as="geometry">
            <mxPoint x="2080" y="380.29" as="sourcePoint" />
            <mxPoint x="2310" y="380" as="targetPoint" />
          </mxGeometry>
        </mxCell>
        <mxCell id="7CZmVCmsiPo-rSapfz1X-9" value="getCurrentUser()" style="html=1;verticalAlign=bottom;endArrow=block;edgeStyle=elbowEdgeStyle;elbow=vertical;curved=0;rounded=0;" parent="1" edge="1">
          <mxGeometry width="80" relative="1" as="geometry">
            <mxPoint x="2310" y="420" as="sourcePoint" />
            <mxPoint x="2550" y="420" as="targetPoint" />
          </mxGeometry>
        </mxCell>
        <mxCell id="7CZmVCmsiPo-rSapfz1X-10" value="user" style="html=1;verticalAlign=bottom;endArrow=open;dashed=1;endSize=8;edgeStyle=elbowEdgeStyle;elbow=vertical;curved=0;rounded=0;" parent="1" edge="1">
          <mxGeometry relative="1" as="geometry">
            <mxPoint x="2545" y="460.2857142857142" as="sourcePoint" />
            <mxPoint x="2310" y="460" as="targetPoint" />
          </mxGeometry>
        </mxCell>
        <mxCell id="7CZmVCmsiPo-rSapfz1X-11" value="" style="html=1;points=[];perimeter=orthogonalPerimeter;outlineConnect=0;targetShapes=umlLifeline;portConstraint=eastwest;newEdgeStyle={&quot;edgeStyle&quot;:&quot;elbowEdgeStyle&quot;,&quot;elbow&quot;:&quot;vertical&quot;,&quot;curved&quot;:0,&quot;rounded&quot;:0};shadow=0;imageAspect=1;fillOpacity=50;strokeOpacity=50;" parent="1" vertex="1">
          <mxGeometry x="2545" y="420" width="10" height="40" as="geometry" />
        </mxCell>
        <mxCell id="7CZmVCmsiPo-rSapfz1X-12" value="UserMng: UserManager" style="html=1;whiteSpace=wrap;fillColor=#fff2cc;strokeColor=#d6b656;" parent="1" vertex="1">
          <mxGeometry x="2480" y="300" width="140" height="30" as="geometry" />
        </mxCell>
        <mxCell id="7CZmVCmsiPo-rSapfz1X-13" style="edgeStyle=orthogonalEdgeStyle;rounded=0;orthogonalLoop=1;jettySize=auto;html=1;exitX=0.5;exitY=1;exitDx=0;exitDy=0;endArrow=none;endFill=0;dashed=1;exitPerimeter=0;" parent="1" edge="1">
          <mxGeometry relative="1" as="geometry">
            <mxPoint x="2550" y="980" as="targetPoint" />
            <mxPoint x="2549.44" y="330" as="sourcePoint" />
          </mxGeometry>
        </mxCell>
        <mxCell id="7CZmVCmsiPo-rSapfz1X-15" value="ALT !user.ischef() || event.assignedChef != user" style="shape=umlFrame;whiteSpace=wrap;html=1;pointerEvents=0;width=250;height=30;fillColor=#f8cecc;strokeColor=#b85450;" parent="1" vertex="1">
          <mxGeometry x="2050" y="470" width="930" height="490" as="geometry" />
        </mxCell>
        <mxCell id="7CZmVCmsiPo-rSapfz1X-16" value="throw UserLogicException" style="html=1;verticalAlign=bottom;endArrow=open;dashed=1;endSize=8;edgeStyle=elbowEdgeStyle;elbow=vertical;curved=0;rounded=0;" parent="1" edge="1">
          <mxGeometry relative="1" as="geometry">
            <mxPoint x="2310" y="530" as="sourcePoint" />
            <mxPoint x="2080" y="530.06" as="targetPoint" />
          </mxGeometry>
        </mxCell>
        <mxCell id="7CZmVCmsiPo-rSapfz1X-18" value="" style="html=1;verticalAlign=bottom;endArrow=none;dashed=1;endSize=8;edgeStyle=elbowEdgeStyle;elbow=vertical;curved=0;rounded=0;endFill=0;fillColor=#f8cecc;strokeColor=#b85450;entryX=0.002;entryY=0.246;entryDx=0;entryDy=0;entryPerimeter=0;exitX=0.999;exitY=0.077;exitDx=0;exitDy=0;exitPerimeter=0;" parent="1" source="7CZmVCmsiPo-rSapfz1X-15" edge="1">
          <mxGeometry relative="1" as="geometry">
            <mxPoint x="2940" y="511" as="sourcePoint" />
            <mxPoint x="2051.7799999999997" y="565.46" as="targetPoint" />
          </mxGeometry>
        </mxCell>
        <mxCell id="7CZmVCmsiPo-rSapfz1X-19" value="getSummarySheet()" style="html=1;verticalAlign=bottom;endArrow=block;edgeStyle=elbowEdgeStyle;elbow=vertical;curved=0;rounded=0;" parent="1" edge="1">
          <mxGeometry x="-0.7536" width="80" relative="1" as="geometry">
            <mxPoint x="2310" y="660.29" as="sourcePoint" />
            <mxPoint x="2960" y="660" as="targetPoint" />
            <mxPoint as="offset" />
          </mxGeometry>
        </mxCell>
        <mxCell id="7CZmVCmsiPo-rSapfz1X-20" value="service: Service" style="html=1;whiteSpace=wrap;fillColor=#fff2cc;strokeColor=#d6b656;" parent="1" vertex="1">
          <mxGeometry x="2880" y="300" width="160" height="30" as="geometry" />
        </mxCell>
        <mxCell id="7CZmVCmsiPo-rSapfz1X-21" style="edgeStyle=orthogonalEdgeStyle;rounded=0;orthogonalLoop=1;jettySize=auto;html=1;exitX=0.5;exitY=1;exitDx=0;exitDy=0;endArrow=none;endFill=0;dashed=1;exitPerimeter=0;" parent="1" edge="1">
          <mxGeometry relative="1" as="geometry">
            <mxPoint x="2960" y="930" as="targetPoint" />
            <mxPoint x="2959.5" y="330" as="sourcePoint" />
          </mxGeometry>
        </mxCell>
        <mxCell id="7CZmVCmsiPo-rSapfz1X-23" value="summarySheet" style="html=1;verticalAlign=bottom;endArrow=open;dashed=1;endSize=8;edgeStyle=elbowEdgeStyle;elbow=vertical;curved=0;rounded=0;" parent="1" edge="1">
          <mxGeometry x="0.814" relative="1" as="geometry">
            <mxPoint x="2960" y="695" as="sourcePoint" />
            <mxPoint x="2310" y="694.5" as="targetPoint" />
            <mxPoint as="offset" />
          </mxGeometry>
        </mxCell>
        <mxCell id="7CZmVCmsiPo-rSapfz1X-25" value="this.currentSheet = summarySheet" style="html=1;align=left;spacingLeft=2;endArrow=block;rounded=0;edgeStyle=orthogonalEdgeStyle;curved=0;rounded=0;" parent="1" edge="1">
          <mxGeometry relative="1" as="geometry">
            <mxPoint x="2310" y="740" as="sourcePoint" />
            <Array as="points">
              <mxPoint x="2340" y="770" />
            </Array>
            <mxPoint x="2315" y="770" as="targetPoint" />
          </mxGeometry>
        </mxCell>
        <mxCell id="7CZmVCmsiPo-rSapfz1X-26" value="notifySheetOpen(summarySheet)" style="html=1;align=left;spacingLeft=2;endArrow=block;rounded=0;edgeStyle=orthogonalEdgeStyle;curved=0;rounded=0;" parent="1" edge="1">
          <mxGeometry relative="1" as="geometry">
            <mxPoint x="2310" y="780" as="sourcePoint" />
            <Array as="points">
              <mxPoint x="2340" y="810" />
            </Array>
            <mxPoint x="2315" y="809.9999999999998" as="targetPoint" />
          </mxGeometry>
        </mxCell>
        <mxCell id="7CZmVCmsiPo-rSapfz1X-27" value="&lt;font style=&quot;font-size: 10px;&quot;&gt;LOOP:for all ktListener in eventReceiver&lt;/font&gt;" style="shape=umlFrame;whiteSpace=wrap;html=1;pointerEvents=0;width=200;height=20;" parent="1" vertex="1">
          <mxGeometry x="2265" y="820" width="630" height="100" as="geometry" />
        </mxCell>
        <mxCell id="7CZmVCmsiPo-rSapfz1X-28" value="updateSheetOpen(currentSheet)" style="html=1;verticalAlign=bottom;endArrow=block;edgeStyle=elbowEdgeStyle;elbow=vertical;curved=0;rounded=0;" parent="1" edge="1">
          <mxGeometry x="-0.6076" width="80" relative="1" as="geometry">
            <mxPoint x="2310" y="870" as="sourcePoint" />
            <mxPoint x="2770" y="870" as="targetPoint" />
            <mxPoint as="offset" />
          </mxGeometry>
        </mxCell>
        <mxCell id="7CZmVCmsiPo-rSapfz1X-29" value="" style="html=1;points=[];perimeter=orthogonalPerimeter;outlineConnect=0;targetShapes=umlLifeline;portConstraint=eastwest;newEdgeStyle={&quot;edgeStyle&quot;:&quot;elbowEdgeStyle&quot;,&quot;elbow&quot;:&quot;vertical&quot;,&quot;curved&quot;:0,&quot;rounded&quot;:0};shadow=0;imageAspect=1;fillOpacity=50;strokeOpacity=50;" parent="1" vertex="1">
          <mxGeometry x="2305" y="380" width="10" height="560" as="geometry" />
        </mxCell>
        <mxCell id="7CZmVCmsiPo-rSapfz1X-30" value="" style="html=1;points=[];perimeter=orthogonalPerimeter;outlineConnect=0;targetShapes=umlLifeline;portConstraint=eastwest;newEdgeStyle={&quot;edgeStyle&quot;:&quot;elbowEdgeStyle&quot;,&quot;elbow&quot;:&quot;vertical&quot;,&quot;curved&quot;:0,&quot;rounded&quot;:0};shadow=0;imageAspect=1;fillOpacity=50;strokeOpacity=50;" parent="1" vertex="1">
          <mxGeometry x="2955" y="660" width="10" height="40" as="geometry" />
        </mxCell>
        <mxCell id="7CZmVCmsiPo-rSapfz1X-31" value="" style="html=1;points=[];perimeter=orthogonalPerimeter;outlineConnect=0;targetShapes=umlLifeline;portConstraint=eastwest;newEdgeStyle={&quot;edgeStyle&quot;:&quot;elbowEdgeStyle&quot;,&quot;elbow&quot;:&quot;vertical&quot;,&quot;curved&quot;:0,&quot;rounded&quot;:0};shadow=0;imageAspect=1;fillOpacity=50;strokeOpacity=50;" parent="1" vertex="1">
          <mxGeometry x="2765" y="870" width="10" height="20" as="geometry" />
        </mxCell>
        <mxCell id="7CZmVCmsiPo-rSapfz1X-33" value="summarySheet" style="html=1;verticalAlign=bottom;endArrow=open;dashed=1;endSize=8;edgeStyle=elbowEdgeStyle;elbow=vertical;curved=0;rounded=0;" parent="1" edge="1">
          <mxGeometry x="0.5" relative="1" as="geometry">
            <mxPoint x="2305" y="940" as="sourcePoint" />
            <mxPoint x="2085" y="940" as="targetPoint" />
            <mxPoint as="offset" />
          </mxGeometry>
        </mxCell>
        <mxCell id="fQtAncADceEp0pkH-DiB-1" value="ALT service.summarySheet == null" style="shape=umlFrame;whiteSpace=wrap;html=1;pointerEvents=0;width=250;height=30;fillColor=#f8cecc;strokeColor=#b85450;" parent="1" vertex="1">
          <mxGeometry x="2050" y="543" width="930" height="417" as="geometry" />
        </mxCell>
        <mxCell id="fQtAncADceEp0pkH-DiB-2" value="throw ServiceException" style="html=1;verticalAlign=bottom;endArrow=open;dashed=1;endSize=8;edgeStyle=elbowEdgeStyle;elbow=vertical;curved=0;rounded=0;" parent="1" edge="1">
          <mxGeometry relative="1" as="geometry">
            <mxPoint x="2310" y="600" as="sourcePoint" />
            <mxPoint x="2085" y="600.06" as="targetPoint" />
          </mxGeometry>
        </mxCell>
        <mxCell id="fQtAncADceEp0pkH-DiB-3" value="" style="html=1;verticalAlign=bottom;endArrow=none;dashed=1;endSize=8;edgeStyle=elbowEdgeStyle;elbow=vertical;curved=0;rounded=0;endFill=0;fillColor=#f8cecc;strokeColor=#b85450;entryX=0.002;entryY=0.246;entryDx=0;entryDy=0;entryPerimeter=0;exitX=0.999;exitY=0.077;exitDx=0;exitDy=0;exitPerimeter=0;" parent="1" edge="1">
          <mxGeometry relative="1" as="geometry">
            <mxPoint x="2979" y="588" as="sourcePoint" />
            <mxPoint x="2051.7799999999997" y="645.46" as="targetPoint" />
          </mxGeometry>
        </mxCell>
      </root>
    </mxGraphModel>
  </diagram>
</mxfile>
